<svg xmlns="http://www.w3.org/2000/svg">

  <!--Main actions-->
  
  <symbol id="menu-settings" viewBox="0 -960 960 960">
    <path d="M353.61-60.78 336.48-195q-8.48-3.3-16.31-8.04-7.82-4.74-15.43-9.92l-124.65 52.83L53.13-380.65l107.52-81.39q-.43-4.74-.43-8.98v-17.96q0-4.24.43-8.98L53.13-579.35l126.96-219.39 125.78 52.26q7.61-5.17 15.09-9.63 7.47-4.46 15.52-7.76l17.13-135.35h252.78l17.13 135.35q8.48 3.3 16.31 7.76 7.82 4.46 15.43 9.63l124.65-52.26 126.96 219.39-108.09 81.39q.44 4.74.44 8.98v8.98q0 4.74-.28 8.98-.29 4.24-1.16 8.98l108.09 81.39-127.52 220.52-124.22-52.83q-7.61 5.18-15.09 9.92-7.47 4.74-15.52 8.04L606.39-60.78H353.61Zm92.61-106h66l14.56-104.87q31.57-8 59.48-23.79 27.91-15.78 49.91-40.04l98.44 41 32.22-57.82-84.31-63.87q5-15.13 7.57-31.2 2.56-16.06 2.56-32.63 0-16.57-2.56-32.63-2.57-16.07-7.57-31.2l85.44-63.87-33.35-57.82-97.87 42q-22-24.7-49.91-41.04-27.92-16.35-60.05-23.79l-13-104.87h-67.13l-12.87 104.31q-32.69 7.43-60.89 23.78-28.19 16.35-50.76 40.61l-97.3-41-32.79 57.82 83.74 62.31q-5 16.13-7.56 31.98-2.57 15.84-2.57 33.41 0 16.57 2.57 32.7 2.56 16.13 7.56 32.26l-83.74 62.74 32.79 57.82 97.3-41.43q22.57 24.13 51.04 40.47 28.48 16.35 60.61 24.35l12.44 104.31ZM480.3-340q58 0 99-41t41-99q0-58-41-99t-99-41q-58.43 0-99.21 41-40.79 41-40.79 99t40.79 99q40.78 41 99.21 41Zm-.3-140Z"/>
    <!--path d="M411.69-68q-19.46 0-34.8-13.29-15.33-13.28-18.66-32.71l-10.77-82.85q-10.07-4.38-23.24-11.53-13.16-7.15-22.91-15.31L223-191.23q-18.85 8.31-37.88 1.61-19.04-6.69-28.58-24.3L87.46-338.08q-9.54-17.61-6.07-36.27 3.46-18.65 19.46-30.42l64.92-50q-.38-6.85-.96-13.92-.58-7.08-.58-13.93 0-5.94.58-12.34.58-6.4.96-14.27l-63.92-48q-16-11.77-19.27-31.12-3.27-19.34 6.27-36.96l68.69-120q9.54-17.23 28.08-23.61 18.53-6.39 37.38.92l73.92 30.08q11.47-8.46 25.39-15.96t25.77-13.27L358.23-848q2.23-19.85 18.12-32.92Q392.23-894 411.69-894h136.62q19.46 0 35.34 13.08 15.89 13.07 18.12 32.92l9.77 82.23q13 6.54 25.57 13.27 12.58 6.73 24.43 15.58L736.39-768q18.56-8.31 37.32-1.42 18.75 6.88 29.13 24.11l68.7 120.39q9.54 17.61 6.07 36.77-3.46 19.15-19.46 30.92l-67.46 51.15q1.15 6.69 1.35 13.62.19 6.92.19 12.46 0 5.15-.39 12.08-.38 6.92-.76 14.77l64.3 48.38q16 11.77 20.16 30.92 4.15 19.16-5.39 36.77l-68.31 122.77q-9.53 17.62-29.1 24.31-19.56 6.69-38.74-1.62l-77.46-32.46q-10.85 7.85-21.81 14.46-10.96 6.62-22.19 11.39L601.77-114q-3.33 19.43-18.66 32.71Q567.77-68 548.31-68H411.69ZM439-154h79.46L533-262.15q31.62-8 58.37-23.32 26.76-15.32 51.48-39.3L740.23-284l40.39-68-84.77-65.38q5-15.54 7.3-31.7 2.31-16.15 2.31-32.65 0-16.89-1.81-31.42-1.8-14.54-6.8-32.7L781.38-610 743-678l-99.54 40.38q-20.08-22.46-50.01-39.71-29.93-17.26-60.83-24.52L521-808h-82.38l-11.24 104.77q-34.61 8.23-62.53 24.65-27.93 16.43-51.47 40.96L217-678l-40.38 68L260-545.62q-5 18.24-7 33.62-2 15.38-2 29.81 0 13.19 2 29.19t6.62 36.62l-83 64.38L217-284l97-41q26.77 25.38 54.19 40.81 27.43 15.42 58.81 23.42L439-154Zm38.46-180q61.52 0 104.76-43.24T625.46-482q0-61.52-43.24-104.76T477.46-630q-61.54 0-104.77 43.24T329.46-482q0 61.52 43.23 104.76T477.46-334ZM479-481Z"/-->
  </symbol>
  
  <symbol id="icon-add-folder" viewBox="0 -960 960 960">
    <path d="M166.31-148q-41.03 0-69.67-28.64T68-246.31v-467.38q0-41.03 28.64-69.67T166.31-812H325q19.89 0 38.16 7.7 18.26 7.71 31.84 21.38L471.92-706h321.77q41.03 0 69.67 28.64T892-607.69v361.38q0 41.03-28.64 69.67T793.69-148H166.31Zm0-86h627.38q5.39 0 8.85-3.46t3.46-8.85v-361.38q0-5.39-3.46-8.85t-8.85-3.46H436.38L333.85-722.54q-1.93-1.92-4.04-2.69-2.12-.77-4.43-.77H166.31q-5.39 0-8.85 3.46t-3.46 8.85v467.38q0 5.39 3.46 8.85t8.85 3.46ZM154-234v-492 492Zm404-150v39q0 17.77 12.62 30.38Q583.23-302 601-302t30.38-12.62Q644-327.23 644-345v-39h39q17.77 0 30.38-12.62Q726-409.23 726-427t-12.62-30.38Q700.77-470 683-470h-39v-39q0-17.77-12.62-30.38Q618.77-552 601-552t-30.38 12.62Q558-526.77 558-509v39h-39q-17.77 0-30.38 12.62Q476-444.77 476-427t12.62 30.38Q501.23-384 519-384h39Z"/>
  </symbol>

  <symbol id="icon-add-sniplet" viewBox="0 -960 960 960">
    <path d="M13 11h-2v3H8v2h3v3h2v-3h3v-2h-3zm1-9H6c-1.1 0-2 .9-2 2v16c0 1.1.89 2 1.99 2H18c1.1 0 2-.9 2-2V8l-6-6zm4 18H6V4h7v5h5v11z"/>
  </symbol>

  <symbol id="menu-add-new" viewBox="0 -960 960 960">
    <path d="M211.28-110.78q-42.24 0-71.62-29.38-29.38-29.38-29.38-71.62v-537.44q0-42.24 29.38-71.62 29.38-29.38 71.62-29.38H558.3v101H211.28v537.44h537.44V-558.8h101v347.02q0 42.24-29.38 71.62-29.38 29.38-71.62 29.38H211.28ZM324.5-284v-75h311v75h-311Zm0-119v-75h311v75h-311Zm0-119v-75h311v75h-311Zm356.52-74.3v-85.22H595.8V-765h85.22v-85.22h83.48V-765h85.22v83.48H764.5v85.22h-83.48Z"/>
    <!--path d="M107-299.09v-106h314.48v106H107Zm0-177.52v-106h466v106H107Zm0-177.52v-106h466v106H107Zm537.52 506v-150.96H493v-106h151.52v-151.52h106v151.52h150.96v106H750.52v150.96h-106Z"/-->
  </symbol>

  <symbol id="menu-pop-out" viewBox="0 -960 960 960">
    <path d="M210.78-109.78q-42.24 0-71.62-29.38-29.38-29.38-29.38-71.62v-538.44q0-42.24 29.38-71.62 29.38-29.38 71.62-29.38H477v101H210.78v538.44h538.44V-477h101v266.22q0 42.24-29.38 71.62-29.38 29.38-71.62 29.38H210.78ZM407.02-337 337-407.02l342.19-342.2H552v-101h298.22V-552h-101v-127.19L407.02-337Z"/>
    <!--path d="M206.31-108q-41.03 0-69.67-28.64T108-206.31v-547.38q0-41.03 28.64-69.67T206.31-852h234.3q17.77 0 30.39 12.62 12.61 12.61 12.61 30.38T471-778.62Q458.38-766 440.61-766h-234.3q-4.62 0-8.46 3.85-3.85 3.84-3.85 8.46v547.38q0 4.62 3.85 8.46 3.84 3.85 8.46 3.85h547.38q4.62 0 8.46-3.85 3.85-3.84 3.85-8.46v-234.3q0-17.77 12.62-30.39 12.61-12.61 30.38-12.61T839.38-471Q852-458.38 852-440.61v234.3q0 41.03-28.64 69.67T753.69-108H206.31ZM766-705.85 415.85-355.69q-12.31 12.3-29.89 12.5-17.57.19-30.27-12.5Q343-368.39 343-385.77t12.69-30.08L705.85-766H622q-17.77 0-30.38-12.62Q579-791.23 579-809t12.62-30.38Q604.23-852 622-852h180.84q20.47 0 34.81 14.35Q852-823.31 852-802.84V-622q0 17.77-12.62 30.38Q826.77-579 809-579t-30.38-12.62Q766-604.23 766-622v-83.85Z"/-->
  </symbol>

  <!--List/navigation icons-->

  <symbol id="path-back" viewBox="0 -960 960 960">
    <path d="M213.07-406q-30.59 0-52.21-21.79-21.63-21.78-21.63-52.37 0-30.59 21.79-52.21Q182.8-554 213.39-554q30.59 0 52.22 21.79 21.62 21.78 21.62 52.37 0 30.59-21.78 52.21Q243.66-406 213.07-406Zm266.77 0q-30.59 0-52.21-21.79Q406-449.57 406-480.16q0-30.59 21.79-52.21Q449.57-554 480.16-554q30.59 0 52.21 21.79Q554-510.43 554-479.84q0 30.59-21.79 52.21Q510.43-406 479.84-406Zm266.77 0q-30.59 0-52.22-21.79-21.62-21.78-21.62-52.37 0-30.59 21.78-52.21Q716.34-554 746.93-554q30.59 0 52.21 21.79 21.63 21.78 21.63 52.37 0 30.59-21.79 52.21Q777.2-406 746.61-406Z"/>
    <!--path d="M22 3H7c-.69 0-1.23.35-1.59.88L0 12l5.41 8.11c.36.53.97.89 1.66.89H22c1.1 0 2-.9 2-2V5c0-1.1-.9-2-2-2zM9 13.5c-.83 0-1.5-.67-1.5-1.5s.67-1.5 1.5-1.5 1.5.67 1.5 1.5-.67 1.5-1.5 1.5zm5 0c-.83 0-1.5-.67-1.5-1.5s.67-1.5 1.5-1.5 1.5.67 1.5 1.5-.67 1.5-1.5 1.5zm5 0c-.83 0-1.5-.67-1.5-1.5s.67-1.5 1.5-1.5 1.5.67 1.5 1.5-.67 1.5-1.5 1.5z"/-->
  </symbol>

  <symbol id="path-separator" viewBox="0 -960 960 960">
    <path d="M501.85-481 345.92-636.92q-12.3-12.31-12.5-29.89-.19-17.57 12.5-30.27 12.7-12.69 30.08-12.69t30.08 12.69l181.77 181.77q7.61 7.62 10.92 15.85 3.31 8.23 3.31 18.46t-3.31 18.46q-3.31 8.23-10.92 15.85L406.08-264.92q-12.31 12.3-29.89 12.5-17.57.19-30.27-12.5-12.69-12.7-12.69-30.08t12.69-30.08L501.85-481Z"/>
  </symbol>

  <symbol id="icon-folder" viewBox="0 -960 960 960">
    <path d="M162-160q-39.72 0-68.86-29.14Q64-218.27 64-258v-444q0-40.72 29.14-69.36T162-800h196l122 122h318q40.72 0 69.36 28.64T896-580v322q0 39.73-28.64 68.86Q838.72-160 798-160H162Zm78-163h312v-72H240v72Zm0-120h480v-72H240v72Z"/>
    <!--path d="M166.31-148q-41.03 0-69.67-28.64T68-246.31v-467.38q0-41.03 28.64-69.67T166.31-812H325q19.89 0 38.16 7.7 18.26 7.71 31.84 21.38L471.92-706h321.77q41.03 0 69.67 28.64T892-607.69v361.38q0 41.03-28.64 69.67T793.69-148H166.31Zm0-86h627.38q5.39 0 8.85-3.46t3.46-8.85v-361.38q0-5.39-3.46-8.85t-8.85-3.46H436.38L333.85-722.54q-1.93-1.92-4.04-2.69-2.12-.77-4.43-.77H166.31q-5.39 0-8.85 3.46t-3.46 8.85v467.38q0 5.39 3.46 8.85t8.85 3.46ZM154-234v-492 492Zm126-83h240q12.77 0 21.38-8.62Q550-334.23 550-347t-8.62-21.38Q532.77-377 520-377H280q-12.77 0-21.38 8.62Q250-359.77 250-347t8.62 21.38Q267.23-317 280-317Zm0-160h400q12.77 0 21.38-8.62Q710-494.23 710-507t-8.62-21.38Q692.77-537 680-537H280q-12.77 0-21.38 8.62Q250-519.77 250-507t8.62 21.38Q267.23-477 280-477Z"/-->
    <!--path d="M166.31-148q-41.03 0-69.67-28.64T68-246.31v-467.38q0-41.03 28.64-69.67T166.31-812H325q19.89 0 38.16 7.7 18.26 7.71 31.84 21.38L471.92-706h321.77q41.03 0 69.67 28.64T892-607.69v361.38q0 41.03-28.64 69.67T793.69-148H166.31Zm0-86h627.38q5.39 0 8.85-3.46t3.46-8.85v-361.38q0-5.39-3.46-8.85t-8.85-3.46H436.38L333.85-722.54q-1.93-1.92-4.04-2.69-2.12-.77-4.43-.77H166.31q-5.39 0-8.85 3.46t-3.46 8.85v467.38q0 5.39 3.46 8.85t8.85 3.46ZM154-234v-492 492Z"/-->
  </symbol>

  <symbol id="icon-folder-expand" viewBox="0 -960 960 960">
    <path d="M162-160q-39.72 0-68.86-29.14Q64-218.27 64-258v-444q0-40.72 29.14-69.36T162-800h196l122 122h318q40.72 0 69.36 28.64T896-580v322q0 39.73-28.64 68.86Q838.72-160 798-160H162Zm484-214v-90h3l33 32v58h-36Zm-68 68h172v-154l-72-72H578v226Z"/>
    <!--path d="M166.31-148q-41.03 0-69.67-28.64T68-246.31v-467.38q0-41.03 28.64-69.67T166.31-812H325q19.89 0 38.16 7.7 18.26 7.71 31.84 21.38L471.92-706h321.77q41.03 0 69.67 28.64T892-607.69v361.38q0 41.03-28.64 69.67T793.69-148H166.31Zm0-86h627.38q5.39 0 8.85-3.46t3.46-8.85v-361.38q0-5.39-3.46-8.85t-8.85-3.46H436.38L333.85-722.54q-1.93-1.92-4.04-2.69-2.12-.77-4.43-.77H166.31q-5.39 0-8.85 3.46t-3.46 8.85v467.38q0 5.39 3.46 8.85t8.85 3.46ZM154-234v-492 492Zm441.85-113.85v-158.3h38.84l57.46 56.46v101.84h-96.3Zm-31.54 67.7h159q15.84 0 26.19-10.35 10.35-10.35 10.35-25.81v-140.92q0-10.23-3.62-18.91T745-492.15L678.15-559q-7.33-7.61-16.01-11.23-8.68-3.62-18.91-3.62h-79.25q-15.32 0-25.57 10.35-10.26 10.35-10.26 25.81v221.38q0 15.46 10.35 25.81 10.35 10.35 25.81 10.35Z"/-->
    <!--path d="M19 3H5c-1.11 0-2 .9-2 2v14c0 1.1.89 2 2 2h14c1.1 0 2-.9 2-2V5c0-1.1-.9-2-2-2zm-2 10h-4v4h-2v-4H7v-2h4V7h2v4h4v2z"/-->
  </symbol>

  <symbol id="icon-folder-collapse" viewBox="0 -960 960 960">
    <path d="M162-160q-42.72 0-70.36-28.64Q64-217.27 64-258v-444q0-40.72 27.64-69.36T162-800h196l122 122h319q41.72 0 68.86 28.64T897-580H162v309l67-237h717l-74 257q-15 50-38 70.5T751-160H162Z"/>
    <!--path d="M164-148q-39.88 0-67.94-28.06Q68-204.12 68-244v-469.69q0-39.88 29.22-69.09Q126.43-812 166.31-812H325q19.89 0 38.16 7.7 18.26 7.71 31.84 21.38L471.92-706h373.62q17.77 0 30.38 12.62 12.62 12.61 12.62 30.38t-12.62 30.38Q863.31-620 845.54-620H436.38l-106-106H166.31q-5.39 0-8.85 3.46t-3.46 8.85V-247q0-5.39 2.12-4.04 2.11 1.35 5.57 3.27l61.85-213.92q9.23-31.31 35.78-50.96 26.55-19.66 58.91-19.66h488.46q49.82 0 78.87 39.23 29.05 39.23 14.82 86.77l-48.92 168.62q-13.85 49.53-42.65 69.61Q780-148 722.08-148H164Zm83.54-86h504q4.23 0 7.5-2.31 3.27-2.31 4.42-6.54l54.16-187.69q1.92-6.15-1.93-10.96-3.84-4.81-10-4.81H318.23q-4.23 0-7.5 2.31-3.27 2.31-4.42 6.54L247.54-234ZM154-459.08V-726v266.92ZM247.54-234l58.77-203.46q1.15-4.23 1.92-6.54l.77-2.31-1.35 4.81q-1.34 4.81-3.27 10.96l-54.15 187.69q-1.15 4.23-1.92 6.54l-.77 2.31Z"/-->
    <!--path d="M438-438v121q0 17.77 12.62 30.38Q463.23-274 481-274t30.38-12.62Q524-299.23 524-317v-121h119q17.77 0 30.38-12.62Q686-463.23 686-481t-12.62-30.38Q660.77-524 643-524H524v-119q0-17.77-12.62-30.38Q498.77-686 481-686t-30.38 12.62Q438-660.77 438-643v119H317q-17.77 0-30.38 12.62Q274-498.77 274-481t12.62 30.38Q299.23-438 317-438h121ZM212.31-114q-41.31 0-69.81-28.5T114-212.31v-535.38q0-41.31 28.5-69.81t69.81-28.5h535.38q41.31 0 69.81 28.5t28.5 69.81v535.38q0 41.31-28.5 69.81T747.69-114H212.31Zm0-86h535.38q4.62 0 8.46-3.85 3.85-3.84 3.85-8.46v-535.38q0-4.62-3.85-8.46-3.84-3.85-8.46-3.85H212.31q-4.62 0-8.46 3.85-3.85 3.84-3.85 8.46v535.38q0 4.62 3.85 8.46 3.84 3.85 8.46 3.85ZM200-760v560-560Z"/-->
  </symbol>

  <symbol id="icon-sniplet" viewBox="0 -960 960 960">
    <path d="M210-112q-41.7 0-69.85-28.15Q112-168.3 112-210v-540q0-41.7 28.15-69.85Q168.3-848 210-848h415l223 223v415q0 41.7-28.15 69.85Q791.7-112 750-112H210Zm62-148h416v-98H272v98Zm0-159h416v-98H272v98Zm0-159h294v-98H272v98Z"/>
    <!--path d="M206.31-194h547.38q5.39 0 8.85-3.46t3.46-8.85v-379.93L586.24-766H206.31q-5.39 0-8.85 3.46t-3.46 8.85v547.38q0 5.39 3.46 8.85t8.85 3.46Zm0 86q-41.83 0-70.07-28.24Q108-164.48 108-206.31v-547.38q0-41.83 28.24-70.07Q164.48-852 206.31-852h373.54q20.06 0 38.24 7.7 18.18 7.71 31.76 21.38l173.07 173.07q13.67 13.58 21.38 31.76 7.7 18.18 7.7 38.24v373.54q0 41.83-28.24 70.07Q795.52-108 753.69-108H206.31ZM317-272h326q17.75 0 30.37-12.63Q686-297.26 686-315.01q0-17.76-12.63-30.37Q660.75-358 643-358H317q-17.75 0-30.37 12.63Q274-332.74 274-314.99q0 17.76 12.63 30.37Q299.25-272 317-272Zm0-165h326q17.75 0 30.37-12.63Q686-462.26 686-480.01q0-17.76-12.63-30.37Q660.75-523 643-523H317q-17.75 0-30.37 12.63Q274-497.74 274-479.99q0 17.76 12.63 30.37Q299.25-437 317-437Zm0-165h174.61q17.75 0 30.38-12.63 12.62-12.63 12.62-30.38 0-17.76-12.62-30.37Q509.36-688 491.61-688H317q-17.75 0-30.37 12.63Q274-662.74 274-644.99q0 17.76 12.63 30.37Q299.25-602 317-602ZM194-194v-572V-194Z"/-->
    <!--path d="m165-201 104-177q-72-11-114-63.5T113-560q0-78 54.5-132T300-746q78 0 131.5 54T485-560q0 24-5 44.5T466-477L306-201H165Zm403 0 102-177q-72-11-113.5-63.5T515-560q0-78 53.5-132T700-746q78 0 132.5 54T887-560q0 24-5 44.5T867-477L707-201H568Z"/-->
  </symbol>

  <!--Item controls-->

  <symbol id="icon-copy" viewBox="0 -960 960 960">
    <path d="M210-118q-41.7 0-69.85-28.15Q112-174.3 112-216v-540q0-41.7 28.15-69.85Q168.3-854 210-854h160q15-34 43.95-54 28.95-20 67.05-20 36 0 66 20t45 54h158q41.7 0 69.85 28.15Q848-797.7 848-756v540q0 41.7-28.15 69.85Q791.7-118 750-118H210Zm0-98h540v-540h-72v160H282v-160h-72v540Zm270.79-542q15.21 0 25.71-10.29t10.5-25.5q0-15.21-10.29-25.71t-25.5-10.5q-15.21 0-25.71 10.29t-10.5 25.5q0 15.21 10.29 25.71t25.5 10.5Z"/>
    <!--path d="M206.31-114q-41.92 0-70.12-28.19Q108-170.39 108-212.31v-547.38q0-41.92 28.19-70.12Q164.39-858 206.31-858h165.23q15.31-32.23 44.41-50.96 29.11-18.73 65.05-18.73 35.08 0 64.92 18.73 29.85 18.73 45.16 50.96h162.61q41.92 0 70.12 28.19Q852-801.61 852-759.69v547.38q0 41.92-28.19 70.12Q795.61-114 753.69-114H206.31Zm0-86h547.38q4.62 0 8.46-3.85 3.85-3.84 3.85-8.46v-547.38q0-4.62-3.85-8.46-3.84-3.85-8.46-3.85H666v144.61H294V-772h-87.69q-4.62 0-8.46 3.85-3.85 3.84-3.85 8.46v547.38q0 4.62 3.85 8.46 3.84 3.85 8.46 3.85ZM481-769.38q15.46 0 25.81-10.35 10.34-10.35 10.34-25.81 0-15.46-10.34-25.81-10.35-10.34-25.81-10.34-15.46 0-25.81 10.34-10.34 10.35-10.34 25.81 0 15.46 10.34 25.81 10.35 10.35 25.81 10.35Z"/-->
    <!--path d="M392-555.69v389.38q0 5.39 3.46 8.85t8.85 3.46H654v-102.85q0-20.46 14.35-34.8Q682.69-306 703.15-306H806v-249.69q0-5.39-3.46-8.85t-8.85-3.46H404.31q-5.39 0-8.85 3.46t-3.46 8.85ZM599-361ZM306-166.31v-389q0-41.92 28-70.3Q362-654 403.92-654h389.77q41.92 0 70.12 28.19Q892-597.61 892-555.69v250.3q0 19.89-7.7 38.16-7.71 18.27-21.38 31.84L724.61-97.08q-13.57 13.67-31.84 21.38-18.26 7.7-38.16 7.7h-250.3q-41.92 0-70.12-28.19Q306-124.39 306-166.31ZM70-709.08Q62.39-750 85.81-782.53q23.42-32.54 64.04-40.08L532.23-890q40.31-7.61 72.5 15.96 32.19 23.58 42.04 63.89L651-786q4.46 21-6.66 33.92-11.11 12.93-27.26 15.54-16.16 2.62-30.7-5.46-14.53-8.08-19.38-29.08l-5-26.46q-.77-4.23-4.62-6.73-3.84-2.5-8.46-1.73l-384.53 67.77q-5.39.77-8.08 5-2.69 4.23-1.93 9.62l65.54 369.38q3.23 15.39-5.96 29.62t-24.57 18.84q-18.77 5.62-34.72-4.93-15.94-10.55-19.51-28.99L70-709.08Z"/-->
    <!--path d="M369-210q-43.73 0-74.86-31.14Q263-272.27 263-316v-488q0-43.72 31.14-74.86Q325.27-910 369-910h368q43.72 0 74.86 31.14T843-804v488q0 43.73-31.14 74.86Q780.72-210 737-210H369Zm0-106h368v-488H369v488ZM183-24q-43.73 0-74.86-31.14Q77-86.28 77-130v-541q0-22 15.5-37.5T130-724q22 0 37.5 15.5T183-671v541h421q22 0 37.5 15.5T657-77q0 22-15.5 37.5T604-24H183Zm186-292v-488 488Z"/-->
  </symbol>

  <symbol id="icon-rename" viewBox="0 0 24 24">
    <path d="M15 16L11 20H21V16H15M12.06 7.19L3 16.25V20H6.75L15.81 10.94L12.06 7.19M5.92 18H5V17.08L12.06 10L13 10.94L5.92 18M18.71 8.04C19.1 7.65 19.1 7 18.71 6.63L16.37 4.29C16.17 4.09 15.92 4 15.66 4C15.41 4 15.15 4.1 14.96 4.29L13.13 6.12L16.88 9.87L18.71 8.04Z" />
  </symbol>

  <symbol id="icon-delete" viewBox="0 -960 960 960">
    <path d="M308-112q-40.43 0-69.21-28.79Q210-169.57 210-210v-490h-48v-98h220v-56h198v56h220v98h-48v489.57q0 41.16-28.79 69.79Q694.42-112 654-112H308Zm55-171h98v-344h-98v344Zm138 0h98v-344h-98v344Z"/>
    <!--path d="M288.31-108q-41.83 0-70.07-28.24Q190-164.48 190-206.31V-724h-10q-17.75 0-30.37-12.63Q137-749.26 137-767.01q0-17.76 12.63-30.37Q162.25-810 180-810h178q0-17.69 12.65-30.54 12.64-12.84 30.73-12.84h159.24q18.09 0 30.73 12.64Q604-828.09 604-810h178q17.75 0 30.37 12.63Q825-784.74 825-766.99q0 17.76-12.63 30.37Q799.75-724 782-724h-10v517.69q0 41.83-28.24 70.07Q715.52-108 673.69-108H288.31ZM686-724H276v517.69q0 5.39 3.46 8.85t8.85 3.46h385.38q5.39 0 8.85-3.46t3.46-8.85V-724ZM398.17-275q17.75 0 30.37-12.62 12.61-12.63 12.61-30.38v-282q0-17.75-12.63-30.38Q415.9-643 398.14-643q-17.75 0-30.37 12.62-12.61 12.63-12.61 30.38v282q0 17.75 12.62 30.38Q380.41-275 398.17-275Zm165.69 0q17.75 0 30.37-12.62 12.61-12.63 12.61-30.38v-282q0-17.75-12.62-30.38Q581.59-643 563.83-643q-17.75 0-30.37 12.62-12.61 12.63-12.61 30.38v282q0 17.75 12.63 30.38Q546.1-275 563.86-275ZM276-724V-194v-530Z"/-->
    <!--path d="M19 4h-3.5l-1-1h-5l-1 1H5v2h14M6 19a2 2 0 0 0 2 2h8a2 2 0 0 0 2-2V7H6v12z"/-->
  </symbol>

  <symbol id="icon-insert" viewBox="0 -960 960 960">
    <path d="m723-126-70-69 44-44H563v-98h134l-44-44 70-69 159 162-159 162ZM275-539h314v-98H275v98Zm0 144h218v-98H275v98ZM131-113v-570.28Q131-725 159.16-753t69.88-28h406.24Q677-781 705-752.85T733-683v157q-21 1-42.5 2.5T648-516q-68 23-118 84t-50 134.45q0 11.55 1 23.55t4 23H269L131-113Z"/>
    <!--path d="M720-116.23 658.85-176l61-61H557v-86h162.85l-61-61L720-443.77 883.77-280 720-116.23Zm-603 3v-591.46q0-41.92 28.19-70.12Q173.39-803 215.31-803h449.38q41.92 0 70.12 28.19Q763-746.61 763-704.69v189.54q-10.69-2.23-21-3.54T720-520q-11.69 0-22 1.31t-21 3.54v-189.54q0-5.39-3.46-8.85t-8.85-3.46H215.31q-5.39 0-8.85 3.46t-3.46 8.85V-323h281.85q-2.23 10.69-3.54 21T480-280q0 11.69 1.31 22t3.54 21H240.77L117-113.23ZM269.31-557h341.38v-86H269.31v86Zm0 160h221.38v-86H269.31v86ZM203-323v-394 394Z"/-->
    <!--path d="M480-480Zm267.69 366H435.46q-17.75 0-30.37-12.63-12.63-12.63-12.63-30.38 0-17.76 12.63-30.37Q417.71-200 435.46-200h312.23q4.62 0 8.46-3.85 3.85-3.84 3.85-8.46v-535.38q0-4.62-3.85-8.46-3.84-3.85-8.46-3.85H212.31q-4.62 0-8.46 3.85-3.85 3.84-3.85 8.46v123.15q0 17.75-12.63 30.38-12.63 12.62-30.38 12.62-17.76 0-30.37-12.62Q114-606.79 114-624.54v-123.15q0-41.31 28.5-69.81t69.81-28.5h535.38q41.31 0 69.81 28.5t28.5 69.81v535.38q0 41.31-28.5 69.81T747.69-114ZM247.92-68Q167.08-68 111-121.97q-56.08-53.96-56.08-130.65 0-49.65 24.58-90.59 24.58-40.94 65.58-64.64H111q-17.75 0-30.37-12.63Q68-433.1 68-450.86q0-17.75 12.63-30.37 12.62-12.61 30.37-12.61h144.61q20.37 0 34.76 14.39 14.4 14.39 14.4 34.76v144.61q0 17.75-12.63 30.38-12.63 12.62-30.38 12.62-17.76 0-30.37-12.62-12.62-12.63-12.62-30.38V-350q-33.85 8.74-55.85 35.03t-22 60.92q0 42.28 31.2 71.17Q203.31-154 247.92-154q17.75 0 30.38 12.63 12.62 12.63 12.62 30.38 0 17.76-12.62 30.37Q265.67-68 247.92-68Zm187.54-208H521q17.75 0 30.37-12.63Q564-301.26 564-319.01q0-17.76-12.63-30.37Q538.75-362 521-362h-85.54q-17.75 0-30.37 12.63-12.63 12.63-12.63 30.38 0 17.76 12.63 30.37Q417.71-276 435.46-276Zm0-162H643q17.75 0 30.37-12.63Q686-463.26 686-481.01q0-17.76-12.63-30.37Q660.75-524 643-524H435.46q-17.75 0-30.37 12.63-12.63 12.63-12.63 30.38 0 17.76 12.63 30.37Q417.71-438 435.46-438ZM317-600h326q17.75 0 30.37-12.63Q686-625.26 686-643.01q0-17.76-12.63-30.37Q660.75-686 643-686H317q-17.75 0-30.37 12.63Q274-660.74 274-642.99q0 17.76 12.63 30.37Q299.25-600 317-600Z"/-->
  </symbol>

  <!--Sync icons-->

  <symbol id="icon-sync" viewBox="0 -960 960 960">
    <path d="M168.13-155.7v-83.47h91.41q-49.87-46.26-78.52-106.84-28.65-60.57-28.65-132.36 0-118.04 74.19-207.7 74.2-89.65 186.57-114.45v105q-69.43 20.48-114.6 80.56-45.16 60.09-45.16 136.59 0 52.04 21.05 92.49 21.06 40.44 52.97 71.75V-399h83.48v243.3H168.13ZM613-131.98q-55.8 0-95.41-39.61T477.98-267q0-52.1 34.44-89.77 34.45-37.66 85.34-43.06 20.39-37.13 55.65-59.66 35.26-22.53 79.59-22.53 57.99 0 100.34 35.63 42.36 35.63 49.79 86.06h3q42.2 4.53 72.05 35.82 29.84 31.29 29.84 76.71 0 47.08-33.87 81.45-33.87 34.37-81.15 34.37H613ZM703.13-520q-7.57-38.17-25.55-69.47-17.99-31.29-44.97-56.4V-561h-83.48v-243.3h242.74v83.47h-91.41q45.06 43.83 70.62 92.33Q796.63-580 804.63-520h-101.5ZM613-224.5h260q9.5 0 16-6.5t6.5-16q0-9.5-6.5-16t-16-6.5h-67.5V-317q0-30.5-21-51.5t-51.5-21q-30.5 0-51.5 21t-21 51.5v7.5H613q-18 0-30.25 12.25T570.5-267q0 18 12.25 30.25T613-224.5ZM733-307Z"/>
    <!--path d="M237-477.46q0 46.46 17.61 88.35 17.62 41.88 59.85 84.19v-52.54q0-17.77 12.62-30.39 12.61-12.61 30.38-12.61t30.39 12.61q12.61 12.62 12.61 30.39v157.23q0 20.46-14.35 34.81-14.34 14.34-34.8 14.34H194.08q-17.77 0-30.39-12.61-12.61-12.62-12.61-30.39 0-17.77 12.61-30.38 12.62-12.62 30.39-12.62h68.31Q208-288.31 179.5-348.04T151-477.46q0-95.54 50.27-176.81t135.58-123.11q14.92-7.08 29.65.92 14.73 8 20.58 25.15 4.84 16.16-.81 32-5.66 15.85-21.19 24.92-57.85 30.77-92.97 88.93-35.11 58.15-35.11 128ZM600-157q-50.38 0-86.69-36.31Q477-229.62 477-280q0-48.15 31.12-82.27 31.11-34.11 80.57-39.11 17.85-36.62 51.69-59.12Q674.23-483 720-483q52.08 0 92.42 33.04 40.35 33.04 51.19 85.96h6.16q43.77 3 68.5 32.42Q963-302.15 963-261q0 42.77-30.12 73.38Q902.77-157 860-157H600Zm45.54-497.69v52.15q0 17.77-12.62 30.39-12.61 12.61-30.38 12.61t-30.39-12.61q-12.61-12.62-12.61-30.39v-157.23q0-20.46 14.35-34.81 14.34-14.34 34.8-14.34h157.23q17.77 0 30.39 12.61 12.61 12.62 12.61 30.39 0 17.77-12.61 30.38-12.62 12.62-30.39 12.62h-68.31q35.54 31 54.81 61.31 19.27 30.3 32.5 61.53 6.85 15.77-1.04 31.2-7.88 15.42-25.26 20.03-17.39 4.62-32.43-4.57-15.04-9.2-24.5-24.96-7.38-19-18.96-35.62-11.58-16.62-37.19-40.69ZM600-243h260q7.23 0 12.12-4.88Q877-252.77 877-260q0-7.23-4.88-12.12Q867.23-277 860-277h-73v-53q0-28.23-19.38-47.62Q748.23-397 720-397q-28.23 0-47.04 17.65-18.81 17.66-19.58 43.2V-317H600q-14.85 0-25.92 11.08Q563-294.85 563-280q0 14.85 11.08 25.92Q585.15-243 600-243Zm120-77Z"/-->
    <!--path d="M355.69-190q-20.04 0-37.67-8.39-17.63-8.38-29.4-25.15l-140.7-199.69q-18.46-25.88-18.46-56.67 0-30.79 18.46-56.87l140.7-198.92q11.43-15.83 28.98-25.07 17.54-9.24 38.09-9.24h398q41.92 0 70.12 28.19Q852-713.61 852-671.69v383.38q0 41.92-28.19 70.12Q795.61-190 753.69-190h-398ZM766-276v-408 408Zm-394.31 0h382q4.62 0 8.46-3.85 3.85-3.84 3.85-8.46v-383.38q0-4.62-3.85-8.46-3.84-3.85-8.46-3.85h-382q-5.77 0-10.96 2.88-5.19 2.89-8.27 7.12L218.38-487.31q-2.3 3.08-2.3 7.31 0 4.23 2.3 7.31L352.46-286q3.08 4.23 8.27 7.12 5.19 2.88 10.96 2.88Zm28-162.62q16.69 0 29.04-12.34 12.35-12.35 12.35-29.04 0-16.69-12.35-29.04-12.35-12.34-29.04-12.34-16.69 0-29.04 12.34-12.34 12.35-12.34 29.04 0 16.69 12.34 29.04 12.35 12.34 29.04 12.34Zm128 0q16.69 0 29.04-12.34 12.35-12.35 12.35-29.04 0-16.69-12.35-29.04-12.35-12.34-29.04-12.34-16.69 0-29.04 12.34-12.34 12.35-12.34 29.04 0 16.69 12.34 29.04 12.35 12.34 29.04 12.34Zm128 0q16.69 0 29.04-12.34 12.35-12.35 12.35-29.04 0-16.69-12.35-29.04-12.35-12.34-29.04-12.34-16.69 0-29.04 12.34-12.34 12.35-12.34 29.04 0 16.69 12.34 29.04 12.35 12.34 29.04 12.34Z"/-->
  </symbol>

  <symbol id="icon-local" viewBox="0 -960 960 960">
    <path d="M781.04-60.85 642.76-199.13q-22.52 13.83-47.89 23.74-25.37 9.91-51.96 15.91v-105q6.57-2 12.82-4.47 6.25-2.46 12.81-4.4L269.39-572.5q-9.8 22.17-14.89 45.53t-5.09 48.47q0 40.54 15.62 80.78t49.36 75.11l8.48 8.48V-399h84.04v243.3h-243.3v-83.47h91.91l-11.22-11.35q-49.69-50.26-72.79-109.02-23.1-58.76-23.1-118.96 0-45.7 12.35-88.67 12.35-42.98 34.41-80.11L62.04-779.85l59.22-59.22 719 719-59.22 59.22Zm-25.63-249.5-75.28-75.28q10.8-21.61 16.39-45.69 5.59-24.07 5.59-50.18 0-41.11-15.62-81.06-15.62-39.96-49.36-74.83l-9.04-8.48V-561h-83.48v-243.3h243.3v83.47H696l11.22 11.35q49.69 50.26 72.79 109.02 23.1 58.76 23.1 118.96 0 47.2-12.53 90.39-12.54 43.2-35.17 80.76Zm-374.3-374.3-74.72-74.72q23.46-13.76 49.04-24.21 25.59-10.44 53.18-16.94v105q-7 2.5-14 4.97-7 2.46-13.5 5.9Z"/>
    <!--path d="M240-183.87q-83.39 0-141.4-58.01-58.01-58.01-58.01-141.4 0-76.96 52.59-134.23 52.6-57.27 128.8-62.51 2.85-9.35 5.47-19.22 2.62-9.87 7.14-18.19L109.26-743q-11.72-11.72-11.6-26.7.12-14.97 11.84-26.69t26.7-11.72q14.97 0 26.69 11.72L798.78-160.5q11.72 11.72 11.48 26.32-.24 14.59-11.72 26.07-11.71 11.72-26.81 11.6-15.1-.12-26.58-11.84l-76.52-75.52H240Zm0-83h345.63L301.35-551.15q-3.52 11.8-6.9 24.22-3.38 12.42-7.38 24.23l-55.07 4q-46.51 4-77.46 36.64-30.95 32.64-30.95 78.81 0 48.25 34.09 82.31 34.09 34.07 82.32 34.07Zm203.37-142.26Zm401.65 193.11-60.65-59.89q22.52-12 37.28-34.04 14.76-22.04 14.76-49.43 0-38.55-26.88-65.43Q782.65-451.7 744-451.7h-69.59l-6-68.58q-7-72.51-60.95-121.96-53.95-49.46-127.68-49.46-24.47 0-46.29 6.12t-41.62 16.17l-59.89-59.89q32-20.96 69.68-33.18Q439.34-774.7 480-774.7q104.2 0 181.75 69.86t89.18 171.82q70.72 2.63 119.6 52.94 48.88 50.32 48.88 121.51 0 44.44-20.57 82.11-20.58 37.68-53.82 60.44ZM588.24-473.28Z"/-->
    <!--path d="M235-478.23q0 43.92 15.77 83.65 15.77 39.73 44.31 72.27l17.38 17.39v-52.54q0-17.77 12.62-30.39 12.61-12.61 30.38-12.61t30.39 12.61q12.61 12.62 12.61 30.39v157.23q0 20.46-14.35 34.81-14.34 14.34-34.8 14.34H192.08q-17.77 0-30.39-12.61-12.61-12.62-12.61-30.39 0-17.77 12.61-30.38 12.62-12.62 30.39-12.62H260l-15.08-15.84q-45.46-45.47-70.69-103.35Q149-414.15 149-478.23q0-45.39 11.96-88.96 11.96-43.58 36.12-81.58L73.62-772.23q-10.93-10.92-12.31-27.19-1.39-16.27 9.92-28.58 11.31-13.31 29.39-13.31 18.07 0 30.38 12.31l701 700.62q10.92 10.92 12.11 27.38 1.2 16.46-10.11 28.77-11.31 13.31-29.39 13.31-18.07 0-30.38-12.31L648.77-197.08q-12 7.39-23.5 12.96-11.5 5.58-24.89 10.97-16.15 6.46-31.88-2.93-15.73-9.38-19.58-26.77-3.84-17.38 6.16-33.5 10-16.11 26.77-23.8 7.38-3 15.04-7.39 7.65-4.38 14.03-8.77l-19.76 21.62-330.08-330.08q-13.62 24.08-19.85 51.5-6.23 27.42-6.23 55.04Zm528.54 160.38-65.62-65.61q12.23-23.46 17.66-47.89 5.42-24.42 5.42-50.42 0-43.92-15.77-83.65-15.77-39.73-44.31-72.27l-17.38-17.39v52.54q0 17.77-12.62 30.39-12.61 12.61-30.38 12.61t-30.39-12.61q-12.61-12.62-12.61-30.39v-157.23q0-20.46 14.35-34.81 14.34-14.34 34.8-14.34h157.23q17.77 0 30.39 12.61 12.61 12.62 12.61 30.39 0 17.77-12.61 30.38-12.62 12.62-30.39 12.62H696l15.08 15.84q45.46 45.47 70.69 103.35Q807-545.85 807-481.77q0 42.77-10.96 84.35-10.96 41.57-32.5 79.57ZM380.08-700.31l-65.23-66.23q10-5.77 19.88-11.04 9.89-5.27 20.27-9.27 16.77-6.46 33.5 2.43 16.73 8.88 20.58 27.27 4.23 14.77.34 29.69-3.88 14.92-17.04 20.61-3.07 1.16-6.34 3.08-3.27 1.92-5.96 3.46Z"/-->
  </symbol>

  <!--Form controls-->

  <symbol id="control-checkbox" viewBox="0 -960 960 960">
    <path d="M232-146q-36.73 0-61.36-24.64Q146-195.27 146-232v-496q0-36.72 24.64-61.36Q195.27-814 232-814h496q36.72 0 61.36 24.64T814-728v496q0 36.73-24.64 61.36Q764.72-146 728-146H232Zm0-54h496q12 0 22-10t10-22v-496q0-12-10-22t-22-10H232q-12 0-22 10t-10 22v496q0 12 10 22t22 10Z"/>
  </symbol>

  <symbol id="control-checkbox-checked" viewBox="0 -960 960 960">
    <path d="m424-328 270-270-38-38-232 232-116-116-38 38 154 154ZM232-146q-36.73 0-61.36-24.64Q146-195.27 146-232v-496q0-36.72 24.64-61.36Q195.27-814 232-814h496q36.72 0 61.36 24.64T814-728v496q0 36.73-24.64 61.36Q764.72-146 728-146H232Zm0-54h496q12 0 22-10t10-22v-496q0-12-10-22t-22-10H232q-12 0-22 10t-10 22v496q0 12 10 22t22 10Zm-32-560v560-560Z"/>
  </symbol>

  <symbol id="control-radio" viewBox="0 -960 960 960">
    <path d="M480.13-88q-81.31 0-152.89-30.86-71.57-30.86-124.52-83.76-52.95-52.9-83.83-124.42Q88-398.55 88-479.87q0-81.56 30.92-153.37 30.92-71.8 83.92-124.91 53-53.12 124.42-83.48Q398.67-872 479.87-872q81.55 0 153.35 30.34 71.79 30.34 124.92 83.42 53.13 53.08 83.49 124.84Q872-561.64 872-480.05q0 81.59-30.34 152.83-30.34 71.23-83.41 124.28-53.07 53.05-124.81 84Q561.7-88 480.13-88Zm-.13-66q136.51 0 231.26-94.74Q806-343.49 806-480t-94.74-231.26Q616.51-806 480-806t-231.26 94.74Q154-616.51 154-480t94.74 231.26Q343.49-154 480-154Zm0-326Z"/>
  </symbol>

  <symbol id="control-radio-checked" viewBox="0 -960 960 960">
    <path d="M480-292q78.47 0 133.23-54.77Q668-401.53 668-480t-54.77-133.23Q558.47-668 480-668t-133.23 54.77Q292-558.47 292-480t54.77 133.23Q401.53-292 480-292Zm.13 204q-81.31 0-152.89-30.86-71.57-30.86-124.52-83.76-52.95-52.9-83.83-124.42Q88-398.55 88-479.87q0-81.56 30.92-153.37 30.92-71.8 83.92-124.91 53-53.12 124.42-83.48Q398.67-872 479.87-872q81.55 0 153.35 30.34 71.79 30.34 124.92 83.42 53.13 53.08 83.49 124.84Q872-561.64 872-480.05q0 81.59-30.34 152.83-30.34 71.23-83.41 124.28-53.07 53.05-124.81 84Q561.7-88 480.13-88Zm-.13-66q136.51 0 231.26-94.74Q806-343.49 806-480t-94.74-231.26Q616.51-806 480-806t-231.26 94.74Q154-616.51 154-480t94.74 231.26Q343.49-154 480-154Zm0-326Z"/>
  </symbol>

  <symbol id="icon-close" viewBox="0 -960 960 960">
    <path d="M259-187.91 188.91-259l220-221-220-221L259-772.09l221 221 221-221L771.09-701l-220 221 220 221L701-187.91l-221-221-221 221Z"/>
  </symbol>
  
</svg>