<svg xmlns="http://www.w3.org/2000/svg">
  
  <symbol id="icon-settings" preserveAspectRatio="xMidYMid meet" viewBox="0 0 24 24">
    <path d="M19.43 12.98c.04-.32.07-.64.07-.98 0-.34-.03-.66-.07-.98l2.11-1.65c.19-.15.24-.42.12-.64l-2-3.46c-.09-.16-.26-.25-.44-.25-.06 0-.12.01-.17.03l-2.49 1c-.52-.4-1.08-.73-1.69-.98l-.38-2.65C14.46 2.18 14.25 2 14 2h-4c-.25 0-.46.18-.49.42l-.38 2.65c-.61.25-1.17.59-1.69.98l-2.49-1c-.06-.02-.12-.03-.18-.03-.17 0-.34.09-.43.25l-2 3.46c-.13.22-.07.49.12.64l2.11 1.65c-.04.32-.07.65-.07.98 0 .33.03.66.07.98l-2.11 1.65c-.19.15-.24.42-.12.64l2 3.46c.09.16.26.25.44.25.06 0 .12-.01.17-.03l2.49-1c.52.4 1.08.73 1.69.98l.38 2.65c.03.24.24.42.49.42h4c.25 0 .46-.18.49-.42l.38-2.65c.61-.25 1.17-.59 1.69-.98l2.49 1c.06.02.12.03.18.03.17 0 .34-.09.43-.25l2-3.46c.12-.22.07-.49-.12-.64l-2.11-1.65zm-1.98-1.71c.04.31.05.52.05.73 0 .21-.02.43-.05.73l-.14 1.13.89.7 1.08.84-.7 1.21-1.27-.51-1.04-.42-.9.68c-.43.32-.84.56-1.25.73l-1.06.43-.16 1.13-.2 1.35h-1.4l-.19-1.35-.16-1.13-1.06-.43c-.43-.18-.83-.41-1.23-.71l-.91-.7-1.06.43-1.27.51-.7-1.21 1.08-.84.89-.7-.14-1.13c-.03-.31-.05-.54-.05-.74s.02-.43.05-.73l.14-1.13-.89-.7-1.08-.84.7-1.21 1.27.51 1.04.42.9-.68c.43-.32.84-.56 1.25-.73l1.06-.43.16-1.13.2-1.35h1.39l.19 1.35.16 1.13 1.06.43c.43.18.83.41 1.23.71l.91.7 1.06-.43 1.27-.51.7 1.21-1.07.85-.89.7.14 1.13zM12 8c-2.21 0-4 1.79-4 4s1.79 4 4 4 4-1.79 4-4-1.79-4-4-4zm0 6c-1.1 0-2-.9-2-2s.9-2 2-2 2 .9 2 2-.9 2-2 2z"/>
  </symbol>

  <symbol id="icon-restore" preserveAspectRatio="xMidYMid meet" viewBox="0 0 24 24">
    <path d="M5 4v2h14V4H5zm0 10h4v6h6v-6h4l-7-7-7 7z"/>
  </symbol>

  <symbol id="icon-backup" preserveAspectRatio="xMidYMid meet" viewBox="0 0 24 24">
    <path d="M19 9h-4V3H9v6H5l7 7 7-7zM5 18v2h14v-2H5z"/>
  </symbol>

  <symbol id="icon-back" preserveAspectRatio="xMidYMid meet" viewBox="0 0 24 24">
    <path d="M10 9V5l-7 7 7 7v-4.1c5 0 8.5 1.6 11 5.1-1-5-4-10-11-11z"/>
  </symbol>
  
  <symbol id="icon-add-folder" preserveAspectRatio="xMidYMid meet" viewBox="0 0 24 24">
    <path d="M20 6h-8l-2-2H4c-1.11 0-1.99.89-1.99 2L2 18c0 1.11.89 2 2 2h16c1.11 0 2-.89 2-2V8c0-1.11-.89-2-2-2zm0 12H4V6h5.17l2 2H20v10zm-8-4h2v2h2v-2h2v-2h-2v-2h-2v2h-2z"/>
  </symbol>

  <symbol id="icon-add-snippet" preserveAspectRatio="xMidYMid meet" viewBox="0 0 24 24">
    <path d="M13 11h-2v3H8v2h3v3h2v-3h3v-2h-3zm1-9H6c-1.1 0-2 .9-2 2v16c0 1.1.89 2 1.99 2H18c1.1 0 2-.9 2-2V8l-6-6zm4 18H6V4h7v5h5v11z"/>
  </symbol>

  <symbol id="icon-pop-out" preserveAspectRatio="xMidYMid meet" viewBox="0 0 24 24">
    <path d="M19 19H5V5h7V3H5c-1.11 0-2 .9-2 2v14c0 1.1.89 2 2 2h14c1.1 0 2-.9 2-2v-7h-2v7zM14 3v2h3.59l-9.83 9.83 1.41 1.41L19 6.41V10h2V3h-7z"/>
  </symbol>

  <symbol id="icon-folder" preserveAspectRatio="xMidYMid meet" viewBox="0 0 24 24">
    <path d="M10 4H4c-1.1 0-1.99.9-1.99 2L2 18c0 1.1.9 2 2 2h16c1.1 0 2-.9 2-2V8c0-1.1-.9-2-2-2h-8l-2-2z"/>
  </symbol>

  <symbol id="icon-snippet" preserveAspectRatio="xMidYMid meet" viewBox="0 0 24 24">
    <path d="M13 14.725c0-5.141 3.892-10.519 10-11.725l.984 2.126c-2.215.835-4.163 3.742-4.38 5.746 2.491.392 4.396 2.547 4.396 5.149 0 3.182-2.584 4.979-5.199 4.979-3.015 0-5.801-2.305-5.801-6.275zm-13 0c0-5.141 3.892-10.519 10-11.725l.984 2.126c-2.215.835-4.163 3.742-4.38 5.746 2.491.392 4.396 2.547 4.396 5.149 0 3.182-2.584 4.979-5.199 4.979-3.015 0-5.801-2.305-5.801-6.275z"/>
  </symbol>

  <symbol id="icon-folder-expand" preserveAspectRatio="xMidYMid meet" viewBox="0 0 24 24">
    <path d="M19 3H5c-1.11 0-2 .9-2 2v14c0 1.1.89 2 2 2h14c1.1 0 2-.9 2-2V5c0-1.1-.9-2-2-2zm-2 10h-4v4h-2v-4H7v-2h4V7h2v4h4v2z"/>
  </symbol>

  <symbol id="icon-folder-collapse" preserveAspectRatio="xMidYMid meet" viewBox="0 0 24 24">
    <path d="M19,3H5C3.9,3,3,3.9,3,5v14c0,1.1,0.9,2,2,2h14c1.1,0,2-0.9,2-2V5C21,3.9,20.1,3,19,3z M17,13H7v-2h10V13z"/>
  </symbol>

  <symbol id="icon-rename" preserveAspectRatio="xMidYMid meet" viewBox="0 0 24 24">
    <path d="M18.41 5.8L17.2 4.59c-.78-.78-2.05-.78-2.83 0l-2.68 2.68L3 15.96V20h4.04l8.74-8.74 2.63-2.63c.79-.78.79-2.05 0-2.83zM6.21 18H5v-1.21l8.66-8.66 1.21 1.21L6.21 18zM11 20l4-4h6v4H11z"/>
  </symbol>

  <symbol id="icon-delete" preserveAspectRatio="xMidYMid meet" viewBox="0 0 24 24">
    <path d="M19 4h-3.5l-1-1h-5l-1 1H5v2h14M6 19a2 2 0 0 0 2 2h8a2 2 0 0 0 2-2V7H6v12z" fill="#b54448"/>
  </symbol>

  <symbol id="icon-sync" preserveAspectRatio="xMidYMid meet" viewBox="0 0 24 24">
    <path d="M12 4V1L8 5l4 4V6c3.31 0 6 2.69 6 6 0 1.01-.25 1.97-.7 2.8l1.46 1.46C19.54 15.03 20 13.57 20 12c0-4.42-3.58-8-8-8zm0 14c-3.31 0-6-2.69-6-6 0-1.01.25-1.97.7-2.8L5.24 7.74C4.46 8.97 4 10.43 4 12c0 4.42 3.58 8 8 8v3l4-4-4-4v3z"/>
  </symbol>

  <symbol id="control-checked" preserveAspectRatio="xMidYMid meet" viewBox="0 0 24 24">
    <path d="M19 3H5c-1.1 0-2 .9-2 2v14c0 1.1.9 2 2 2h14c1.1 0 2-.9 2-2V5c0-1.1-.9-2-2-2zm0 16H5V5h14v14zM17.99 9l-1.41-1.42-6.59 6.59-2.58-2.57-1.42 1.41 4 3.99z"/>
  </symbol>

  <symbol id="control-unchecked" preserveAspectRatio="xMidYMid meet" viewBox="0 0 24 24">
    <path d="M19 5v14H5V5h14m0-2H5c-1.1 0-2 .9-2 2v14c0 1.1.9 2 2 2h14c1.1 0 2-.9 2-2V5c0-1.1-.9-2-2-2z"/>
  </symbol>

  <symbol id="control-selected" preserveAspectRatio="xMidYMid meet" viewBox="0 0 24 24">
    <path d="M12 2C6.48 2 2 6.48 2 12s4.48 10 10 10 10-4.48 10-10S17.52 2 12 2zm0 18c-4.42 0-8-3.58-8-8s3.58-8 8-8 8 3.58 8 8-3.58 8-8 8z"/><circle cx="12" cy="12" r="5"/>
  </symbol>

  <symbol id="control-unselected" preserveAspectRatio="xMidYMid meet" viewBox="0 0 24 24">
    <path d="M12 2C6.48 2 2 6.48 2 12s4.48 10 10 10 10-4.48 10-10S17.52 2 12 2zm0 18c-4.42 0-8-3.58-8-8s3.58-8 8-8 8 3.58 8 8-3.58 8-8 8z"/>
  </symbol>
  
</svg>